<?xml version="1.0" encoding="UTF-8"?><svg id="_レイヤー_2" xmlns="http://www.w3.org/2000/svg" viewBox="0 0 110.173 83.499"><defs><style>.cls-1{fill:#231815;}</style></defs><g id="_レイヤー_1-2"><g><path class="cls-1" d="M54.783,0c-15.191,0-27.551,12.359-27.551,27.553s12.359,27.551,27.551,27.551,27.551-12.359,27.551-27.551S69.977,0,54.783,0Zm0,4.061c10.76,0,19.848,7.275,22.617,17.164-2.988,.602-7.723-.168-13.469-7.137-2.621-1.266-5-2.113-7.141-2.539-2.141-.422-4.391-.637-6.754-.637-6.24,0-11.106,1.711-14.594,5.133-1.109,1.086-2.023,2.297-2.779,3.602,3.252-9.074,11.939-15.586,22.119-15.586Zm0,46.985c-4.769,0-9.207-1.434-12.914-3.883,2.316,.766,4.934,1.156,7.863,1.156,2.637,0,5.279-.309,7.93-.93,2.652-.621,4.781-1.242,6.391-1.871V27.775h-16.566v6.769h7.184v7.086c-.353,.033-.742,.059-1.17,.074-.428,.016-.816,.023-1.17,.023-4.121,0-7.234-1.055-9.342-3.16-2.107-2.105-3.162-5.145-3.162-9.117,0-1.945,.293-3.662,.879-5.148,.59-1.488,1.389-2.715,2.402-3.68,1.061-.996,2.26-1.734,3.596-2.219,1.336-.48,2.824-.723,4.463-.723,1.4,0,2.723,.182,3.969,.545,1.248,.365,2.34,.797,3.273,1.303,.803,.426,1.641,.943,2.508,1.551,.816,.574,1.443,1.019,1.891,1.348,5.938,5.535,11.598,2.918,14.957,.25,.334,1.574,.512,3.203,.512,4.875,0,12.953-10.539,23.493-23.492,23.493Z"/><g><path class="cls-1" d="M16.81,82.071c-.799,.312-1.857,.623-3.174,.932-1.316,.307-2.629,.461-3.937,.461-3.033,0-5.408-.826-7.125-2.479-1.717-1.652-2.574-3.936-2.574-6.85,0-2.775,.867-5.016,2.6-6.717,1.732-1.701,4.146-2.551,7.246-2.551,1.172,0,2.289,.105,3.352,.316,1.06,.213,2.242,.635,3.545,1.267v4.189h-.516c-.225-.164-.551-.398-.982-.703-.432-.307-.846-.564-1.244-.779-.465-.25-1.006-.469-1.625-.65-.617-.18-1.273-.273-1.967-.273-.816,0-1.553,.121-2.217,.359-.662,.238-1.258,.605-1.783,1.1-.504,.48-.9,1.088-1.193,1.826-.289,.738-.435,1.59-.435,2.555,0,1.971,.521,3.476,1.566,4.521,1.045,1.045,2.588,1.568,4.629,1.568,.176,0,.369-.006,.58-.012,.211-.008,.404-.022,.58-.037v-3.492h-3.541v-3.369h8.217v8.816Z"/><path class="cls-1" d="M28.239,80.276c-.355,.133-.727,.197-1.115,.197-.455,0-.859-.07-1.209-.215-.355-.143-.66-.369-.914-.682-.262-.326-.461-.758-.598-1.295-.135-.537-.201-1.17-.201-1.904,0-.818,.078-1.498,.232-2.041,.154-.541,.363-.967,.627-1.277,.295-.334,.602-.557,.922-.668,.322-.111,.689-.168,1.103-.168s.801,.066,1.158,.201c.357,.139,.664,.369,.918,.695,.256,.318,.453,.742,.598,1.277,.141,.533,.215,1.193,.215,1.98,0,.852-.072,1.52-.209,2.002-.139,.48-.348,.893-.627,1.234-.248,.309-.549,.531-.9,.662m4.281-9.158c-1.277-1.279-3.09-1.92-5.434-1.92-2.31,0-4.113,.637-5.41,1.906-1.297,1.271-1.942,3.021-1.942,5.25,0,2.213,.642,3.959,1.931,5.232,1.287,1.273,3.096,1.912,5.422,1.912s4.137-.639,5.424-1.912,1.932-3.019,1.932-5.232-.641-3.959-1.922-5.236Z"/><path class="cls-1" d="M48.915,83.087h-2.267v-7.627c0-.615-.035-1.193-.107-1.732-.072-.539-.201-.961-.394-1.266-.199-.334-.486-.584-.859-.75-.375-.162-.859-.244-1.457-.244-.615,0-1.258,.152-1.924,.455-.67,.305-1.311,.691-1.924,1.162v10.002h-2.271v-13.373h2.271v1.478c.699-.582,1.43-1.037,2.178-1.363,.752-.33,1.519-.492,2.314-.492,1.443,0,2.543,.436,3.305,1.305,.76,.871,1.137,2.123,1.137,3.76v8.685Z"/><path class="cls-1" d="M62.825,79.206c0,1.225-.506,2.23-1.516,3.012-1.016,.787-2.398,1.178-4.152,1.178-.992,0-1.902-.117-2.732-.352-.826-.234-1.519-.492-2.082-.771v-2.521h.121c.709,.537,1.5,.963,2.365,1.279,.873,.316,1.705,.475,2.5,.475,.988,0,1.762-.16,2.32-.482,.559-.326,.838-.834,.838-1.529,0-.527-.15-.928-.451-1.199-.305-.273-.885-.506-1.744-.697-.322-.072-.738-.156-1.25-.254-.516-.094-.984-.197-1.404-.311-1.17-.312-2.002-.769-2.49-1.373-.49-.605-.736-1.348-.736-2.228,0-.551,.117-1.072,.344-1.561,.229-.488,.576-.924,1.041-1.309,.447-.377,1.016-.676,1.707-.894,.697-.221,1.471-.33,2.326-.33,.803,0,1.611,.098,2.435,.291,.82,.195,1.504,.432,2.045,.711v2.4h-.119c-.572-.424-1.273-.781-2.094-1.074-.82-.293-1.629-.437-2.414-.437-.826,0-1.518,.16-2.084,.478-.568,.318-.851,.793-.851,1.424,0,.553,.172,.969,.516,1.248,.336,.281,.877,.51,1.625,.686,.412,.096,.877,.191,1.393,.289,.516,.096,.939,.184,1.283,.264,1.045,.24,1.848,.65,2.416,1.238,.562,.59,.846,1.375,.846,2.351Z"/><path class="cls-1" d="M77.229,83.087h-2.269v-7.627c0-.615-.035-1.193-.107-1.732-.072-.539-.201-.961-.394-1.266-.199-.334-.486-.584-.859-.75-.375-.162-.859-.244-1.457-.244-.615,0-1.256,.152-1.926,.455-.67,.305-1.31,.691-1.924,1.162v10.002h-2.269v-18.633h2.269v6.738c.703-.582,1.43-1.037,2.178-1.363,.752-.33,1.525-.492,2.316-.492,1.443,0,2.547,.436,3.305,1.305,.76,.871,1.139,2.123,1.139,3.76v8.685Z"/><path class="cls-1" d="M83.962,67.446h-2.543v-2.338h2.543v2.338m-.137,15.641h-2.269v-13.373h2.269v13.373Z"/><path class="cls-1" d="M96.677,72.188h-.121c-.334-.082-.662-.145-.979-.184-.318-.037-.693-.057-1.127-.057-.695,0-1.371,.154-2.019,.461-.648,.309-1.271,.703-1.873,1.189v9.488h-2.269v-13.373h2.269v1.976c.898-.719,1.689-1.226,2.371-1.527,.687-.299,1.389-.449,2.102-.449,.391,0,.676,.012,.851,.031,.176,.021,.441,.057,.795,.115v2.328Z"/><path class="cls-1" d="M106.817,80.22c-.68,.857-1.615,1.285-2.807,1.285-1.207,0-2.152-.432-2.826-1.295-.676-.863-1.016-2.131-1.016-3.803,0-1.728,.34-3.01,1.01-3.853,.672-.84,1.617-1.258,2.832-1.258,1.199,0,2.137,.418,2.814,1.258,.676,.844,1.01,2.125,1.01,3.853,0,1.686-.34,2.957-1.018,3.812m1.68-8.984c-1.117-1.266-2.613-1.898-4.486-1.898-1.891,0-3.394,.633-4.508,1.898-1.111,1.266-1.67,2.99-1.67,5.172s.559,3.9,1.67,5.164c1.113,1.262,2.617,1.893,4.508,1.893,1.873,0,3.369-.631,4.486-1.893,1.117-1.264,1.676-2.984,1.676-5.164s-.558-3.906-1.676-5.172Z"/></g></g></g></svg>