<?xml version="1.0" encoding="UTF-8"?><svg id="_レイヤー_2" xmlns="http://www.w3.org/2000/svg" viewBox="0 0 349.57 349.57"><defs><style>.cls-1{fill:#fff;stroke:#ba2734;stroke-miterlimit:10;stroke-width:3px;}</style></defs><g id="_レイヤー_1-2"><g><line class="cls-1" x1="174.785" x2="174.785" y2="174.557"/><line class="cls-1" x1="129.547" y1="5.956" x2="174.726" y2="174.565"/><line class="cls-1" x1="87.392" y1="23.417" x2="174.671" y2="174.588"/><line class="cls-1" x1="51.193" y1="51.194" x2="174.624" y2="174.624"/><line class="cls-1" x1="23.417" y1="87.393" x2="174.587" y2="174.671"/><line class="cls-1" x1="5.956" y1="129.548" x2="174.565" y2="174.726"/><line class="cls-1" x1="0" y1="174.785" x2="174.557" y2="174.785"/><line class="cls-1" x1="5.956" y1="220.023" x2="174.565" y2="174.844"/><line class="cls-1" x1="23.417" y1="262.178" x2="174.588" y2="174.899"/><line class="cls-1" x1="51.194" y1="298.377" x2="174.624" y2="174.947"/><line class="cls-1" x1="87.393" y1="326.153" x2="174.671" y2="174.983"/><line class="cls-1" x1="129.548" y1="343.614" x2="174.726" y2="175.005"/><line class="cls-1" x1="174.785" y1="349.57" x2="174.785" y2="175.013"/><line class="cls-1" x1="220.023" y1="343.614" x2="174.844" y2="175.005"/><line class="cls-1" x1="262.178" y1="326.153" x2="174.899" y2="174.982"/><line class="cls-1" x1="298.377" y1="298.377" x2="174.947" y2="174.946"/><line class="cls-1" x1="326.153" y1="262.177" x2="174.983" y2="174.899"/><line class="cls-1" x1="343.614" y1="220.022" x2="175.005" y2="174.844"/><line class="cls-1" x1="349.57" y1="174.785" x2="175.013" y2="174.785"/><line class="cls-1" x1="343.614" y1="129.547" x2="175.005" y2="174.726"/><line class="cls-1" x1="326.153" y1="87.392" x2="174.982" y2="174.671"/><line class="cls-1" x1="298.377" y1="51.193" x2="174.946" y2="174.624"/><line class="cls-1" x1="262.177" y1="23.417" x2="174.899" y2="174.587"/><line class="cls-1" x1="220.022" y1="5.956" x2="174.844" y2="174.565"/></g></g></svg>